<?xml version="1.0" encoding="UTF-8" standalone="no"?>
<!DOCTYPE svg PUBLIC "-//W3C//DTD SVG 1.1//EN" "http://www.w3.org/Graphics/SVG/1.1/DTD/svg11.dtd">
<svg version="1.1" xmlns="http://www.w3.org/2000/svg" xmlns:xlink="http://www.w3.org/1999/xlink" preserveAspectRatio="xMidYMid meet" viewBox="0 0 127 126" width="127" height="126"><defs><path d="M0.63 125.93C0.63 62.97 0.63 28 0.63 21C0.63 15.05 5.84 9.1 12.53 9.1C13.87 9.1 20.57 9.1 32.63 9.1C32.63 12.67 32.63 14.65 32.63 15.05C32.63 16.54 33.37 17.28 34.86 17.28C36.35 17.28 37.09 16.54 37.09 15.05C37.09 14.65 37.09 12.67 37.09 9.1L90.67 9.1C90.67 12.67 90.67 14.65 90.67 15.05C90.67 16.54 91.42 17.28 92.91 17.28C94.4 17.28 95.14 16.54 95.14 15.05C95.14 14.65 95.14 12.67 95.14 9.1C107.64 9.1 114.59 9.1 115.98 9.1C121.93 9.1 127.88 14.3 127.88 21C127.88 26.61 127.88 54.64 127.88 105.1L106.3 125.93L0.63 125.93ZM104.81 121.47L122.67 103.61C122.67 54.04 122.67 26.51 122.67 21C122.67 17.28 119.7 14.3 115.98 14.3C114.89 14.3 109.43 14.3 99.6 14.3C99.6 15.2 99.6 15.69 99.6 15.79C99.6 19.51 96.63 22.49 92.91 22.49C89.19 22.49 86.21 19.51 86.21 15.79C86.21 15.69 86.21 15.2 86.21 14.3L41.56 14.3C41.56 15.2 41.56 15.69 41.56 15.79C41.56 19.51 38.58 22.49 34.86 22.49C31.14 22.49 28.16 19.51 28.16 15.79C28.16 15.69 28.16 15.2 28.16 14.3C18.79 14.3 13.58 14.3 12.53 14.3C8.81 14.3 5.84 17.28 5.84 21C5.84 27.7 5.84 61.19 5.84 121.47L5.84 121.47L104.81 121.47Z" id="lemeDc3dX"></path><path d="M125.16 24.72C125.16 24.72 125.16 24.72 125.16 24.72C125.16 27.85 125.16 29.59 125.16 29.93C125.16 29.93 125.16 29.93 125.16 29.93C52.38 29.93 11.95 29.93 3.86 29.93C3.86 29.93 3.86 29.93 3.86 29.93C3.86 26.81 3.86 25.07 3.86 24.72C3.86 24.72 3.86 24.72 3.86 24.72C76.64 24.72 117.08 24.72 125.16 24.72Z" id="bMGWli4Z3"></path><path d="M28.42 15.05C28.42 14.16 28.42 7.01 28.42 6.12C28.42 2.4 31.4 -0.58 35.12 -0.58C38.84 -0.58 41.81 2.4 41.81 6.12C41.81 7.01 41.81 14.16 41.81 15.05C42.56 18.77 38.84 21.75 35.12 21.75C31.4 21.75 28.42 18.77 28.42 15.05ZM32.88 6.86C32.88 7.76 32.88 14.9 32.88 15.79C32.88 17.28 33.63 18.03 35.12 18.03C36.6 18.03 37.35 17.28 37.35 15.79C37.35 14.9 37.35 7.76 37.35 6.86C37.35 5.37 36.6 4.63 35.12 4.63C33.63 4.63 32.88 5.37 32.88 6.86Z" id="d21y0S0Tsv"></path><path d="M87.21 15.05C87.21 14.16 87.21 7.01 87.21 6.12C87.21 2.4 90.19 -0.58 93.91 -0.58C97.63 -0.58 100.6 2.4 100.6 6.12C100.6 7.01 100.6 14.16 100.6 15.05C99.86 18.77 97.63 21.75 93.91 21.75C90.19 21.75 87.21 18.77 87.21 15.05ZM91.67 6.86C91.67 7.76 91.67 14.9 91.67 15.79C91.67 17.28 92.42 18.03 93.91 18.03C95.4 18.03 96.14 17.28 96.14 15.79C96.14 14.9 96.14 7.76 96.14 6.86C95.4 5.37 93.91 4.63 93.91 4.63C92.42 4.63 91.67 5.37 91.67 6.86Z" id="a1i8vZ6wOD"></path><path d="M92.42 60.44L92.42 47.79L105.07 47.79L105.07 60.44L92.42 60.44ZM100.6 56.72L100.6 53L96.88 53L96.88 56.72L100.6 56.72Z" id="g8h2xCOyPD"></path><path d="M70.09 60.44L70.09 47.79L82.74 47.79L82.74 60.44L70.09 60.44ZM78.28 56.72L78.28 53L74.56 53L74.56 56.72L78.28 56.72Z" id="c66X77wwz"></path><path d="M48.51 60.44L48.51 47.79L61.16 47.79L61.16 60.44L48.51 60.44ZM56.7 56.72L56.7 53L52.98 53L52.98 56.72L56.7 56.72Z" id="b4z7jvUIf"></path><path d="M26.19 60.44L26.19 47.79L38.84 47.79L38.84 60.44L26.19 60.44ZM35.12 56.72L35.12 53L31.4 53L31.4 56.72L35.12 56.72Z" id="g2HWbmnHJ9"></path><path d="M26.19 82.03L26.19 69.37L38.84 69.37L38.84 82.03L26.19 82.03ZM35.12 78.3L35.12 74.58L31.4 74.58L31.4 78.3L35.12 78.3Z" id="c3bhSIbFPX"></path><path d="M48.51 82.03L48.51 69.37L61.16 69.37L61.16 82.03L48.51 82.03ZM56.7 78.3L56.7 74.58L52.98 74.58L52.98 78.3L56.7 78.3Z" id="g2aZRkqAzq"></path><path d="M70.09 82.03L70.09 69.37L82.74 69.37L82.74 82.03L70.09 82.03ZM78.28 78.3L78.28 74.58L74.56 74.58L74.56 78.3L78.28 78.3Z" id="dxM4QI7m7"></path><path d="M26.19 103.61L26.19 90.96L38.84 90.96L38.84 103.61L26.19 103.61ZM35.12 99.89L35.12 96.17L31.4 96.17L31.4 99.89L35.12 99.89Z" id="a1auHtN8Lu"></path><path d="M48.51 103.61L48.51 90.96L61.16 90.96L61.16 103.61L48.51 103.61ZM56.7 99.89L56.7 96.17L52.98 96.17L52.98 99.89L56.7 99.89Z" id="e9XeBOtY"></path><path d="M70.09 103.61L70.09 90.96L82.74 90.96L82.74 103.61L70.09 103.61ZM78.28 99.89L78.28 96.17L74.56 96.17L74.56 99.89L78.28 99.89Z" id="btxl06pO"></path><path d="M92.42 82.03L92.42 69.37L105.07 69.37L105.07 82.03L92.42 82.03ZM100.6 78.3L100.6 74.58L96.88 74.58L96.88 78.3L100.6 78.3Z" id="b1uvLevoHI"></path><path d="M115.49 108.07L109.53 114.03L109.53 108.07L115.49 108.07M105.81 103.61L105.81 125.19L127.4 103.61L127.4 103.61L105.81 103.61Z" id="d7YaQepIBo"></path></defs><g><g><g><use xlink:href="#lemeDc3dX" opacity="1" fill="#ffb806" fill-opacity="1"></use><g><use xlink:href="#lemeDc3dX" opacity="1" fill-opacity="0" stroke="#000000" stroke-width="1" stroke-opacity="0"></use></g></g><g><use xlink:href="#bMGWli4Z3" opacity="1" fill="#ffb806" fill-opacity="1"></use><g><use xlink:href="#bMGWli4Z3" opacity="1" fill-opacity="0" stroke="#000000" stroke-width="1" stroke-opacity="0"></use></g></g><g><use xlink:href="#d21y0S0Tsv" opacity="1" fill="#ffb806" fill-opacity="1"></use><g><use xlink:href="#d21y0S0Tsv" opacity="1" fill-opacity="0" stroke="#000000" stroke-width="1" stroke-opacity="0"></use></g></g><g><use xlink:href="#a1i8vZ6wOD" opacity="1" fill="#ffb806" fill-opacity="1"></use><g><use xlink:href="#a1i8vZ6wOD" opacity="1" fill-opacity="0" stroke="#000000" stroke-width="1" stroke-opacity="0"></use></g></g><g><use xlink:href="#g8h2xCOyPD" opacity="1" fill="#ffb806" fill-opacity="1"></use><g><use xlink:href="#g8h2xCOyPD" opacity="1" fill-opacity="0" stroke="#000000" stroke-width="1" stroke-opacity="0"></use></g></g><g><use xlink:href="#c66X77wwz" opacity="1" fill="#ffb806" fill-opacity="1"></use><g><use xlink:href="#c66X77wwz" opacity="1" fill-opacity="0" stroke="#000000" stroke-width="1" stroke-opacity="0"></use></g></g><g><use xlink:href="#b4z7jvUIf" opacity="1" fill="#ffb806" fill-opacity="1"></use><g><use xlink:href="#b4z7jvUIf" opacity="1" fill-opacity="0" stroke="#000000" stroke-width="1" stroke-opacity="0"></use></g></g><g><use xlink:href="#g2HWbmnHJ9" opacity="1" fill="#ffb806" fill-opacity="1"></use><g><use xlink:href="#g2HWbmnHJ9" opacity="1" fill-opacity="0" stroke="#000000" stroke-width="1" stroke-opacity="0"></use></g></g><g><use xlink:href="#c3bhSIbFPX" opacity="1" fill="#ffb806" fill-opacity="1"></use><g><use xlink:href="#c3bhSIbFPX" opacity="1" fill-opacity="0" stroke="#000000" stroke-width="1" stroke-opacity="0"></use></g></g><g><use xlink:href="#g2aZRkqAzq" opacity="1" fill="#ffb806" fill-opacity="1"></use><g><use xlink:href="#g2aZRkqAzq" opacity="1" fill-opacity="0" stroke="#000000" stroke-width="1" stroke-opacity="0"></use></g></g><g><use xlink:href="#dxM4QI7m7" opacity="1" fill="#ffb806" fill-opacity="1"></use><g><use xlink:href="#dxM4QI7m7" opacity="1" fill-opacity="0" stroke="#000000" stroke-width="1" stroke-opacity="0"></use></g></g><g><use xlink:href="#a1auHtN8Lu" opacity="1" fill="#ffb806" fill-opacity="1"></use><g><use xlink:href="#a1auHtN8Lu" opacity="1" fill-opacity="0" stroke="#000000" stroke-width="1" stroke-opacity="0"></use></g></g><g><use xlink:href="#e9XeBOtY" opacity="1" fill="#ffb806" fill-opacity="1"></use><g><use xlink:href="#e9XeBOtY" opacity="1" fill-opacity="0" stroke="#000000" stroke-width="1" stroke-opacity="0"></use></g></g><g><use xlink:href="#btxl06pO" opacity="1" fill="#ffb806" fill-opacity="1"></use><g><use xlink:href="#btxl06pO" opacity="1" fill-opacity="0" stroke="#000000" stroke-width="1" stroke-opacity="0"></use></g></g><g><use xlink:href="#b1uvLevoHI" opacity="1" fill="#ffb806" fill-opacity="1"></use><g><use xlink:href="#b1uvLevoHI" opacity="1" fill-opacity="0" stroke="#000000" stroke-width="1" stroke-opacity="0"></use></g></g><g><use xlink:href="#d7YaQepIBo" opacity="1" fill="#ffb806" fill-opacity="1"></use><g><use xlink:href="#d7YaQepIBo" opacity="1" fill-opacity="0" stroke="#000000" stroke-width="1" stroke-opacity="0"></use></g></g></g></g></svg>