<?xml version="1.0" encoding="UTF-8" standalone="no"?>
<!DOCTYPE svg PUBLIC "-//W3C//DTD SVG 1.1//EN" "http://www.w3.org/Graphics/SVG/1.1/DTD/svg11.dtd">
<svg version="1.1" xmlns="http://www.w3.org/2000/svg" xmlns:xlink="http://www.w3.org/1999/xlink" preserveAspectRatio="xMidYMid meet" viewBox="0 0 640 488" width="640" height="488"><defs><path d="M78.26 1.03C35.09 1.03 0 36.13 0 79.29C0 112.35 0 376.77 0 409.82C0 452.99 35.09 488.08 78.26 488.08C126.61 488.08 513.39 488.08 561.74 488.08C604.91 488.08 640 452.99 640 409.82C640 376.78 640 112.47 640 79.43C640.13 36.26 605.04 1.03 561.87 1.03C465.15 1.03 126.62 1.03 78.26 1.03ZM561.87 452.33C513.51 452.33 126.62 452.33 78.26 452.33C54.82 452.33 35.75 433.26 35.75 409.82C35.75 376.78 35.75 112.47 35.75 79.43C35.75 55.99 54.82 36.92 78.26 36.92C126.61 36.92 513.39 36.92 561.74 36.92C585.18 36.92 604.25 55.99 604.25 79.43C604.25 101.45 604.3 211.59 604.38 409.82L604.38 409.82C591.67 438.16 577.5 452.33 561.87 452.33Z" id="b587qIShm"></path><path d="M560.15 100.09C567.43 93.46 568.09 82.21 561.47 74.79C554.85 67.51 543.6 66.85 536.18 73.47C521.79 86.38 449.84 150.96 320.33 267.2C295.06 244.64 281.03 232.1 278.22 229.59C278.09 229.46 277.96 229.33 277.96 229.2C277.03 228.27 276.1 227.48 275.04 226.68C257.91 211.35 120.82 88.67 103.69 73.34C96.27 66.71 85.02 67.38 78.39 74.79C71.77 82.21 72.44 93.46 79.85 100.09C90.41 109.52 143.2 156.71 238.23 241.65C143.6 330.24 91.03 379.45 80.51 389.3C73.36 396.05 72.97 407.31 79.72 414.59C83.29 418.3 88.06 420.28 92.83 420.28C97.2 420.28 101.57 418.69 105.01 415.52C115.68 405.53 169.05 355.61 265.11 265.75C291.17 289.03 305.65 301.96 308.55 304.55C311.99 307.59 316.23 309.05 320.46 309.05C324.7 309.05 329.07 307.46 332.38 304.41C335.36 301.75 350.23 288.42 377.01 264.42C472.51 355.16 525.57 405.57 536.18 415.65C539.62 418.96 544.13 420.55 548.5 420.55C553.26 420.55 557.9 418.69 561.47 414.99C568.23 407.84 567.96 396.45 560.81 389.69C550.33 379.74 497.94 330 403.63 240.45C497.54 156.23 549.71 109.44 560.15 100.09Z" id="a9lSHggS8"></path></defs><g><g><g><use xlink:href="#b587qIShm" opacity="1" fill="#2a7ebd" fill-opacity="1"></use><g><use xlink:href="#b587qIShm" opacity="1" fill-opacity="0" stroke="#000000" stroke-width="1" stroke-opacity="0"></use></g></g><g><use xlink:href="#a9lSHggS8" opacity="1" fill="#2a7ebd" fill-opacity="1"></use><g><use xlink:href="#a9lSHggS8" opacity="1" fill-opacity="0" stroke="#000000" stroke-width="1" stroke-opacity="0"></use></g></g></g></g></svg>