<?xml version="1.0" encoding="utf-8"?>
<!-- Generator: Adobe Illustrator 20.1.0, SVG Export Plug-In . SVG Version: 6.00 Build 0)  -->
<svg version="1.1" id="Capa_1" xmlns="http://www.w3.org/2000/svg" xmlns:xlink="http://www.w3.org/1999/xlink" x="0px" y="0px"
	 viewBox="0 0 512 512" style="enable-background:new 0 0 512 512;" xml:space="preserve">
<path d="M401.9,488.5c26.7,0,48.5-21.7,48.5-48.5V218.4l34.3,29.8l11.1-12.8L256,27.2L16.2,235.4l11.1,12.8l34.3-29.8v221.7
	c0,26.7,21.7,48.5,48.5,48.5h100.4V292.7h92.9v195.8H401.9z M193.6,275.7v195.8h-83.4c-17.4,0-31.5-14.1-31.5-31.5V203.7L256,49.7
	l177.4,154v236.4c0,17.4-14.1,31.5-31.5,31.5h-81.4V275.7H193.6z"/>
</svg>
